<svg aria-hidden="true" style="width:0;height:0;position:absolute;overflow:hidden" xmlns="http://www.w3.org/2000/svg"><defs><symbol id="icon-arrow-left" viewBox="0 0 32 32"><path d="M25.332 17.334H6.666a1.333 1.333 0 0 1 .002-2.668h18.666a1.334 1.334 0 1 1-.002 2.668z"/><path d="M16 26.666c-.34 0-.682-.13-.942-.39l-9.334-9.334a1.33 1.33 0 0 1 0-1.884l9.334-9.334a1.333 1.333 0 0 1 1.884 1.884L8.552 16l8.39 8.388A1.335 1.335 0 0 1 16 26.666z"/></symbol><symbol id="icon-arrow-right" viewBox="0 0 32 32"><path stroke-linejoin="round" stroke-linecap="round" stroke-width="2.667" d="M6.667 16h18.667M16 25.334l9.333-9.333L16 6.668"/></symbol><symbol id="icon-sign-in" viewBox="0 0 32 32"><path d="M14 2v4l2 2V4h14v24H16v-4l-2 2v4h18V2z"/><path d="M20 16 10 8v4H0v8h10v4z"/></symbol><symbol id="icon-sign-out" viewBox="0 0 32 32"><path d="M18 8V2H0v28h18v-6h-2v4H2V4h14v4z"/><path d="M32 16 22 8v4H12v8h10v4z"/></symbol></defs></svg>