<svg aria-hidden="true" style="position: absolute; width: 0; height: 0; overflow: hidden;" version="1.1" xmlns="http://www.w3.org/2000/svg" xmlns:xlink="http://www.w3.org/1999/xlink">
<defs>
<symbol id="icon-arrow-left" viewBox="0 0 32 32">
<path d="M25.332 17.334h-18.666c-0.736 0-1.332-0.598-1.332-1.334s0.596-1.334 1.334-1.334h18.666c0.736 0 1.334 0.596 1.334 1.334s-0.6 1.334-1.336 1.334z"></path>
<path d="M16 26.666c-0.34 0-0.682-0.13-0.942-0.39l-9.334-9.334c-0.25-0.25-0.39-0.588-0.39-0.942s0.14-0.692 0.39-0.942l9.334-9.334c0.52-0.522 1.366-0.522 1.884 0 0.52 0.52 0.52 1.364 0 1.884l-8.39 8.392 8.39 8.388c0.52 0.522 0.52 1.366 0 1.886-0.26 0.262-0.602 0.392-0.942 0.392z"></path>
</symbol>
<symbol id="icon-arrow-right" viewBox="0 0 32 32">
<path stroke-linejoin="round" stroke-linecap="round" stroke-miterlimit="4" stroke-width="2.6667" d="M6.667 16h18.667"></path>
<path stroke-linejoin="round" stroke-linecap="round" stroke-miterlimit="4" stroke-width="2.6667" d="M16 25.334l9.333-9.333-9.333-9.333"></path>
</symbol>
</defs>
</svg>
